Normalized EMG Linear Envelopes
nRows=123
nColumns=4

endheader
time	 med_gas_r	  soleus_r	 tib_ant_r	
2.79133	  0.008569	  0.050203	  0.002269	
2.8629	  0.008242	  0.052563	  0.002290	
2.93448	  0.008141	  0.052938	  0.002301	
3.00605	  0.008522	  0.050940	  0.002322	
3.07762	  0.009179	  0.049623	  0.002435	
3.14919	  0.009794	  0.049877	  0.002643	
3.22077	  0.010112	  0.052420	  0.002835	
3.29234	  0.010196	  0.054651	  0.002909	
3.36391	  0.010257	  0.055435	  0.002768	
3.43548	  0.010190	  0.055109	  0.002573	
3.50706	  0.009780	  0.054414	  0.002542	
3.57863	  0.009257	  0.053777	  0.002688	
3.6502	  0.009253	  0.051883	  0.002813	
3.72177	  0.009815	  0.050980	  0.002852	
3.79335	  0.010761	  0.050487	  0.002860	
3.86492	  0.012107	  0.050301	  0.002833	
3.93649	  0.013138	  0.049712	  0.002792	
4.00806	  0.013013	  0.048361	  0.002802	
4.07964	  0.012002	  0.046335	  0.002830	
4.15121	  0.010348	  0.045912	  0.002793	
4.22278	  0.008836	  0.046378	  0.002759	
4.29435	  0.008097	  0.048058	  0.002793	
4.36593	  0.007683	  0.049250	  0.002891	
4.4375	  0.007396	  0.050647	  0.002912	
4.50907	  0.007393	  0.052538	  0.002813	
4.58065	  0.007675	  0.052893	  0.002663	
4.65222	  0.008351	  0.050462	  0.002654	
4.72379	  0.009232	  0.047701	  0.002806	
4.79536	  0.009635	  0.045427	  0.002979	
4.86694	  0.009401	  0.044026	  0.003132	
4.93851	  0.009234	  0.042901	  0.003290	
5.01008	  0.009402	  0.042914	  0.003432	
5.08165	  0.009777	  0.045727	  0.003490	
5.15323	  0.010089	  0.050323	  0.003462	
5.2248	  0.009670	  0.055890	  0.003417	
5.29637	  0.007243	  0.059446	  0.003408	
5.36794	  0.001929	  0.059698	  0.003362	
5.43952	 -0.005003	  0.055453	  0.003183	
5.51109	 -0.005753	  0.054760	  0.003474	
5.58266	  0.018874	  0.068895	  0.005338	
5.65423	  0.097556	  0.108448	  0.010188	
5.72581	  0.248531	  0.175916	  0.018554	
5.79738	  0.445380	  0.253504	  0.028194	
5.86895	  0.624701	  0.319759	  0.034646	
5.94052	  0.719014	  0.365794	  0.038148	
6.0121	  0.754501	  0.403775	  0.042106	
6.08367	  0.773704	  0.446660	  0.046564	
6.15524	  0.798290	  0.488789	  0.049992	
6.22681	  0.838603	  0.533426	  0.053782	
6.29839	  0.899002	  0.583290	  0.058806	
6.36996	  0.939667	  0.638066	  0.063016	
6.44153	  0.953922	  0.697818	  0.065779	
6.5131	  0.938892	  0.763827	  0.068346	
6.58468	  0.872131	  0.812149	  0.068265	
6.65625	  0.804480	  0.826491	  0.065305	
6.72782	  0.774458	  0.806971	  0.062052	
6.7994	  0.751863	  0.773332	  0.061995	
6.87097	  0.736024	  0.751453	  0.063355	
6.94254	  0.744979	  0.751453	  0.065140	
7.01411	  0.780138	  0.774597	  0.066473	
7.08569	  0.823145	  0.799345	  0.066134	
7.15726	  0.855628	  0.786788	  0.064543	
7.22883	  0.855056	  0.745603	  0.061781	
7.3004	  0.830940	  0.711336	  0.060004	
7.37198	  0.808143	  0.702397	  0.060645	
7.44355	  0.815372	  0.724856	  0.062342	
7.51512	  0.836568	  0.742024	  0.062055	
7.58669	  0.841076	  0.736703	  0.059905	
7.65827	  0.839992	  0.722505	  0.056693	
7.72984	  0.813104	  0.716711	  0.055196	
7.80141	  0.762981	  0.727022	  0.056808	
7.87298	  0.724709	  0.747935	  0.059903	
7.94456	  0.705660	  0.773345	  0.062429	
8.01613	  0.699139	  0.786646	  0.063288	
8.0877	  0.710248	  0.779614	  0.063877	
8.15927	  0.739939	  0.754143	  0.063811	
8.23085	  0.775857	  0.727682	  0.063485	
8.30242	  0.814837	  0.721367	  0.064284	
8.37399	  0.849320	  0.730720	  0.065636	
8.44556	  0.855471	  0.736563	  0.066651	
8.51714	  0.817830	  0.730593	  0.066364	
8.58871	  0.772137	  0.718615	  0.067493	
8.66028	  0.752639	  0.730406	  0.071695	
8.73185	  0.783407	  0.772019	  0.074483	
8.80343	  0.859208	  0.835738	  0.072583	
8.875	  0.951740	  0.903920	  0.068703	
8.94657	  0.999196	  0.931300	  0.065618	
9.01815	  0.980378	  0.895647	  0.064524	
9.08972	  0.924495	  0.841031	  0.065318	
9.16129	  0.862393	  0.799099	  0.066992	
9.23286	  0.782217	  0.757592	  0.065289	
9.30444	  0.673696	  0.719523	  0.059412	
9.37601	  0.574557	  0.683967	  0.052172	
9.44758	  0.519325	  0.647974	  0.047135	
9.51915	  0.513847	  0.616969	  0.048776	
9.59073	  0.554955	  0.613031	  0.055507	
9.6623	  0.649020	  0.646838	  0.063230	
9.73387	  0.744212	  0.705918	  0.066564	
9.80544	  0.785609	  0.745957	  0.065824	
9.87702	  0.790822	  0.737713	  0.065109	
9.94859	  0.762730	  0.726890	  0.065879	
10.0202	  0.726549	  0.716348	  0.066891	
10.0917	  0.680517	  0.716174	  0.066008	
10.1633	  0.619306	  0.704360	  0.061925	
10.2349	  0.548785	  0.680181	  0.054772	
10.3065	  0.459754	  0.654159	  0.046936	
10.378	  0.378709	  0.620938	  0.039522	
10.4496	  0.318100	  0.578406	  0.033873	
10.5212	  0.267105	  0.542421	  0.031088	
10.5927	  0.227310	  0.519486	  0.029389	
10.6643	  0.195273	  0.493042	  0.030277	
10.7359	  0.160957	  0.462329	  0.038378	
10.8075	  0.125269	  0.422855	  0.053380	
10.879	  0.094227	  0.383584	  0.073041	
10.9506	  0.068975	  0.358031	  0.091588	
11.0222	  0.053210	  0.344747	  0.103074	
11.0937	  0.045890	  0.329233	  0.112093	
11.1653	  0.044226	  0.304823	  0.116147	
11.2369	  0.043513	  0.281409	  0.105096	
11.3085	  0.041371	  0.259072	  0.087943	
11.38	  0.038856	  0.246107	  0.079516	
11.4516	  0.037388	  0.235209	  0.081423	
11.5232	  0.036174	  0.218688	  0.084326	
